<?xml version="1.0" encoding="UTF-8"?>
<!-- RustyNES icon - master vector (512x512). Oxidized cog + NES controller hub,
     red Press Start 2P wordmark, and four corner NES peripherals. -->
<svg xmlns="http://www.w3.org/2000/svg" width="512" height="512" viewBox="0 0 512 512">
  <defs>
    <linearGradient id="plate" x1="0" y1="0" x2="0" y2="1">
      <stop offset="0" stop-color="#30343d"/><stop offset="0.55" stop-color="#1d2026"/><stop offset="1" stop-color="#121419"/>
    </linearGradient>
    <radialGradient id="vignette" cx="0.5" cy="0.46" r="0.72">
      <stop offset="0.55" stop-color="#000" stop-opacity="0"/><stop offset="1" stop-color="#000" stop-opacity="0.45"/>
    </radialGradient>
    <linearGradient id="rust" x1="0.12" y1="0.05" x2="0.9" y2="0.98">
      <stop offset="0" stop-color="#f3a64d"/><stop offset="0.34" stop-color="#d2701f"/>
      <stop offset="0.68" stop-color="#a64a18"/><stop offset="1" stop-color="#6f2d10"/>
    </linearGradient>
    <radialGradient id="sheen" cx="0.3" cy="0.24" r="0.62">
      <stop offset="0" stop-color="#ffe6c4" stop-opacity="0.7"/><stop offset="0.45" stop-color="#ffd9a8" stop-opacity="0.14"/><stop offset="1" stop-color="#ffd9a8" stop-opacity="0"/>
    </radialGradient>
    <radialGradient id="patina" cx="0.76" cy="0.82" r="0.6">
      <stop offset="0" stop-color="#2f1004" stop-opacity="0"/><stop offset="1" stop-color="#2f1004" stop-opacity="0.62"/>
    </radialGradient>
    <radialGradient id="hub" cx="0.5" cy="0.42" r="0.62">
      <stop offset="0" stop-color="#20242b"/><stop offset="0.7" stop-color="#0f1116"/><stop offset="1" stop-color="#070809"/>
    </radialGradient>
    <linearGradient id="cbody" x1="0" y1="0" x2="0" y2="1">
      <stop offset="0" stop-color="#dcdbd6"/><stop offset="0.5" stop-color="#bebdb8"/><stop offset="1" stop-color="#999893"/>
    </linearGradient>
    <linearGradient id="recess" x1="0" y1="0" x2="0" y2="1">
      <stop offset="0" stop-color="#202329"/><stop offset="1" stop-color="#050608"/>
    </linearGradient>
    <linearGradient id="dpadg" x1="0.2" y1="0.1" x2="0.8" y2="0.95">
      <stop offset="0" stop-color="#3c3f45"/><stop offset="0.5" stop-color="#1c1e22"/><stop offset="1" stop-color="#08090b"/>
    </linearGradient>
    <!-- Concave A/B button: dished inward (dark at the top, light at the bottom,
         inverse of a dome) plus an inner top shadow, so the face reads as scooped. -->
    <linearGradient id="btnDish" x1="0" y1="0" x2="0" y2="1">
      <stop offset="0" stop-color="#600d0d"/><stop offset="0.5" stop-color="#a81d1d"/><stop offset="1" stop-color="#e8635a"/>
    </linearGradient>
    <radialGradient id="dishShade" cx="0.5" cy="0.12" r="0.85">
      <stop offset="0" stop-color="#000" stop-opacity="0.6"/><stop offset="0.6" stop-color="#000" stop-opacity="0.12"/><stop offset="1" stop-color="#000" stop-opacity="0"/>
    </radialGradient>
    <!-- Molded-plastic shading gradients for the corner peripherals (top-lit in
         each item's local frame). -->
    <linearGradient id="conBody" x1="0" y1="0" x2="0.15" y2="1">
      <stop offset="0" stop-color="#dad9d3"/><stop offset="0.5" stop-color="#c9c8c2"/><stop offset="1" stop-color="#b3b2ac"/>
    </linearGradient>
    <linearGradient id="conTop" x1="0" y1="0" x2="0.3" y2="1">
      <stop offset="0" stop-color="#e7e6e0"/><stop offset="1" stop-color="#cdccc6"/>
    </linearGradient>
    <linearGradient id="conBase" x1="0" y1="0" x2="0" y2="1">
      <stop offset="0" stop-color="#94938d"/><stop offset="1" stop-color="#7c7b75"/>
    </linearGradient>
    <radialGradient id="conBay" cx="0.5" cy="0.3" r="0.9">
      <stop offset="0" stop-color="#2e2e33"/><stop offset="1" stop-color="#161619"/>
    </radialGradient>
    <linearGradient id="cartGrey" x1="0.1" y1="0" x2="0.4" y2="1">
      <stop offset="0" stop-color="#9b9a94"/><stop offset="0.5" stop-color="#8a8884"/><stop offset="1" stop-color="#73726c"/>
    </linearGradient>
    <linearGradient id="zapLight" x1="0" y1="0" x2="0.2" y2="1">
      <stop offset="0" stop-color="#eceae3"/><stop offset="0.5" stop-color="#dad8d1"/><stop offset="1" stop-color="#bdbbb3"/>
    </linearGradient>
    <linearGradient id="zapDark" x1="0" y1="0" x2="0.25" y2="1">
      <stop offset="0" stop-color="#8e8f89"/><stop offset="0.5" stop-color="#7c7d77"/><stop offset="1" stop-color="#5e5f59"/>
    </linearGradient>
    <linearGradient id="zapBarrel" x1="0" y1="0" x2="0" y2="1">
      <stop offset="0" stop-color="#90918b"/><stop offset="0.45" stop-color="#76776f"/><stop offset="1" stop-color="#565751"/>
    </linearGradient>
    <linearGradient id="robBody" x1="0.1" y1="0" x2="0.4" y2="1">
      <stop offset="0" stop-color="#e0dfd9"/><stop offset="0.5" stop-color="#cdccc6"/><stop offset="1" stop-color="#a9a8a1"/>
    </linearGradient>
    <linearGradient id="robBase" x1="0" y1="0" x2="0" y2="1">
      <stop offset="0" stop-color="#bbbab4"/><stop offset="1" stop-color="#8f8e88"/>
    </linearGradient>
    <linearGradient id="robArm" x1="0" y1="0" x2="0.3" y2="1">
      <stop offset="0" stop-color="#8a8a86"/><stop offset="0.5" stop-color="#73736e"/><stop offset="1" stop-color="#56565a"/>
    </linearGradient>
    <radialGradient id="robLens" cx="0.4" cy="0.35" r="0.75">
      <stop offset="0" stop-color="#46464e"/><stop offset="0.6" stop-color="#26262b"/><stop offset="1" stop-color="#0e0e12"/>
    </radialGradient>
    <clipPath id="gearClip"><path d="M 445.560,243.077 L 445.560,268.923 L 429.597,267.835 L 426.745,289.499 L 442.446,292.579 L 435.756,317.544 L 420.619,312.362 L 412.257,332.549 L 426.625,339.588 L 413.702,361.972 L 400.422,353.048 L 387.120,370.383 L 399.177,380.901 L 380.901,399.177 L 370.383,387.120 L 353.048,400.422 L 361.972,413.702 L 339.588,426.625 L 332.549,412.257 L 312.362,420.619 L 317.544,435.756 L 292.579,442.446 L 289.499,426.745 L 267.835,429.597 L 268.923,445.560 L 243.077,445.560 L 244.165,429.597 L 222.501,426.745 L 219.421,442.446 L 194.456,435.756 L 199.638,420.619 L 179.451,412.257 L 172.412,426.625 L 150.028,413.702 L 158.952,400.422 L 141.617,387.120 L 131.099,399.177 L 112.823,380.901 L 124.880,370.383 L 111.578,353.048 L 98.298,361.972 L 85.375,339.588 L 99.743,332.549 L 91.381,312.362 L 76.244,317.544 L 69.554,292.579 L 85.255,289.499 L 82.403,267.835 L 66.440,268.923 L 66.440,243.077 L 82.403,244.165 L 85.255,222.501 L 69.554,219.421 L 76.244,194.456 L 91.381,199.638 L 99.743,179.451 L 85.375,172.412 L 98.298,150.028 L 111.578,158.952 L 124.880,141.617 L 112.823,131.099 L 131.099,112.823 L 141.617,124.880 L 158.952,111.578 L 150.028,98.298 L 172.412,85.375 L 179.451,99.743 L 199.638,91.381 L 194.456,76.244 L 219.421,69.554 L 222.501,85.255 L 244.165,82.403 L 243.077,66.440 L 268.923,66.440 L 267.835,82.403 L 289.499,85.255 L 292.579,69.554 L 317.544,76.244 L 312.362,91.381 L 332.549,99.743 L 339.588,85.375 L 361.972,98.298 L 353.048,111.578 L 370.383,124.880 L 380.901,112.823 L 399.177,131.099 L 387.120,141.617 L 400.422,158.952 L 413.702,150.028 L 426.625,172.412 L 412.257,179.451 L 420.619,199.638 L 435.756,194.456 L 442.446,219.421 L 426.745,222.501 L 429.597,244.165 Z"/></clipPath>
  </defs>

  <!-- Console plate -->
  <rect x="0" y="0" width="512" height="512" rx="112" fill="url(#plate)"/>
  <rect x="0" y="0" width="512" height="512" rx="112" fill="url(#vignette)"/>
  <rect x="6" y="6" width="500" height="500" rx="106" fill="none" stroke="#fff" stroke-opacity="0.05" stroke-width="2"/>

  <!-- Corner peripherals (behind the cog, tucked under the teeth) -->
  <g transform="translate(95.49,95.49) rotate(-45) scale(1.02)">
<path d="M -58.0,-19.0 h116.0 v38.0 h-116.0 Z" transform="translate(3,4)" fill="#000" fill-opacity="0.32"/>
<path d="M 58.0,-19.0 l18.0,-18.0 v38.0 l-18.0,18.0 Z" fill="#46453f"/>
<path d="M -58.0,-19.0 h116.0 l18.0,-18.0 h-116.0 Z" fill="url(#conTop)" stroke="#5f5e59" stroke-width="1"/>
<path d="M -39.44,-19.0 l18.0,-18.0" stroke="#b4b3ad" stroke-opacity="0.8" stroke-width="0.8"/>
<path d="M -36.84,-19.0 l18.0,-18.0" stroke="#b4b3ad" stroke-opacity="0.8" stroke-width="0.8"/>
<path d="M -34.24,-19.0 l18.0,-18.0" stroke="#b4b3ad" stroke-opacity="0.8" stroke-width="0.8"/>
<path d="M -31.64,-19.0 l18.0,-18.0" stroke="#b4b3ad" stroke-opacity="0.8" stroke-width="0.8"/>
<path d="M -29.04,-19.0 l18.0,-18.0" stroke="#b4b3ad" stroke-opacity="0.8" stroke-width="0.8"/>
<path d="M -26.44,-19.0 l18.0,-18.0" stroke="#b4b3ad" stroke-opacity="0.8" stroke-width="0.8"/>
<path d="M -23.84,-19.0 l18.0,-18.0" stroke="#b4b3ad" stroke-opacity="0.8" stroke-width="0.8"/>
<path d="M -21.24,-19.0 l18.0,-18.0" stroke="#b4b3ad" stroke-opacity="0.8" stroke-width="0.8"/>
<path d="M -11.60,-19.0 l18.0,-18.0 h23.20 l-18.0,18.0 Z" fill="#222226"/>
<path d="M -58.0,-19.0 h116.0 v38.0 h-116.0 Z" fill="url(#conBody)" stroke="#5f5e59" stroke-width="1.3"/>
<rect x="-58.0" y="11.40" width="116.0" height="7.60" fill="url(#conBase)"/>
<line x1="-58.0" y1="11.40" x2="58.0" y2="11.40" stroke="#5f5e59" stroke-width="0.8"/>
<rect x="-11.60" y="-17.00" width="23.20" height="28.12" rx="1.5" fill="url(#conBay)" stroke="#101013" stroke-width="0.8"/>
<rect x="-11.60" y="-17.00" width="23.20" height="2.2" fill="#3a3a40" opacity="0.6"/>
<rect x="-10.10" y="-4.06" width="20.20" height="1.3" fill="#0d0d10"/>
<rect x="-53.36" y="-9.60" width="24.00" height="6.60" rx="3.30" fill="none" stroke="#e60012" stroke-width="1.19"/>
<text x="-53.36" y="0.50" font-family="Arial,Helvetica,sans-serif" font-size="2.6" letter-spacing="0.3" fill="#3a3a3c">ENTERTAINMENT SYSTEM</text>
<circle cx="-52.20" cy="6.08" r="1.5" fill="#c0392b"/>
<circle cx="-52.60" cy="5.58" r="0.6" fill="#ffd0cc"/>
<rect x="-47.56" y="3.04" width="10.44" height="6.84" rx="1" fill="#cdccc6" stroke="#5f5e59" stroke-width="0.7"/>
<rect x="-47.56" y="3.04" width="10.44" height="1.5" rx="1" fill="#deddd7"/>
<rect x="-33.64" y="3.04" width="10.44" height="6.84" rx="1" fill="#cdccc6" stroke="#5f5e59" stroke-width="0.7"/>
<rect x="-33.64" y="3.04" width="10.44" height="1.5" rx="1" fill="#deddd7"/>
<text x="-48.14" y="11.02" font-family="Arial" font-size="2.0" fill="#7a2a20">POWER  RESET</text>
<rect x="17.40" y="1.52" width="12.76" height="9.88" rx="1.2" fill="#141418" stroke="#8f8e88" stroke-width="0.7"/>
<circle cx="20.18" cy="6.46" r="0.5" fill="#3a3a40"/>
<circle cx="21.38" cy="6.46" r="0.5" fill="#3a3a40"/>
<circle cx="22.58" cy="6.46" r="0.5" fill="#3a3a40"/>
<circle cx="23.78" cy="6.46" r="0.5" fill="#3a3a40"/>
<circle cx="24.98" cy="6.46" r="0.5" fill="#3a3a40"/>
<circle cx="26.18" cy="6.46" r="0.5" fill="#3a3a40"/>
<circle cx="27.38" cy="6.46" r="0.5" fill="#3a3a40"/>
<rect x="34.80" y="1.52" width="12.76" height="9.88" rx="1.2" fill="#141418" stroke="#8f8e88" stroke-width="0.7"/>
<circle cx="37.58" cy="6.46" r="0.5" fill="#3a3a40"/>
<circle cx="38.78" cy="6.46" r="0.5" fill="#3a3a40"/>
<circle cx="39.98" cy="6.46" r="0.5" fill="#3a3a40"/>
<circle cx="41.18" cy="6.46" r="0.5" fill="#3a3a40"/>
<circle cx="42.38" cy="6.46" r="0.5" fill="#3a3a40"/>
<circle cx="43.58" cy="6.46" r="0.5" fill="#3a3a40"/>
<circle cx="44.78" cy="6.46" r="0.5" fill="#3a3a40"/>
</g>
<g transform="translate(434.19,77.81) rotate(45) scale(1.45)">
<path d="M -23.60,-29.00 L -10.40,-29.00 L -10.40,-26.10 L -3.12,-26.10 L -3.12,-29.00 L 23.60,-29.00 Q 26.00,-29.00 26.00,-26.60 L 26.00,20.30 L 23.66,22.62 L 23.66,26.60 Q 23.66,29.00 21.26,29.00 L -21.26,29.00 Q -23.66,29.00 -23.66,26.60 L -23.66,22.62 L -26.00,20.30 L -26.00,-26.60 Q -26.00,-29.00 -23.60,-29.00 Z" transform="translate(3,4)" fill="#000" fill-opacity="0.32"/>
<path d="M -23.60,-29.00 L -10.40,-29.00 L -10.40,-26.10 L -3.12,-26.10 L -3.12,-29.00 L 23.60,-29.00 Q 26.00,-29.00 26.00,-26.60 L 26.00,20.30 L 23.66,22.62 L 23.66,26.60 Q 23.66,29.00 21.26,29.00 L -21.26,29.00 Q -23.66,29.00 -23.66,26.60 L -23.66,22.62 L -26.00,20.30 L -26.00,-26.60 Q -26.00,-29.00 -23.60,-29.00 Z" transform="translate(2.5,3.5)" fill="#5a5854"/>
<path d="M -23.60,-29.00 L -10.40,-29.00 L -10.40,-26.10 L -3.12,-26.10 L -3.12,-29.00 L 23.60,-29.00 Q 26.00,-29.00 26.00,-26.60 L 26.00,20.30 L 23.66,22.62 L 23.66,26.60 Q 23.66,29.00 21.26,29.00 L -21.26,29.00 Q -23.66,29.00 -23.66,26.60 L -23.66,22.62 L -26.00,20.30 L -26.00,-26.60 Q -26.00,-29.00 -23.60,-29.00 Z" fill="url(#cartGrey)" stroke="#5a5854" stroke-width="1.2"/>
<rect x="-19.24" y="-20.30" width="14.04" height="40.60" fill="#838179"/>
<rect x="-19.24" y="-20.30" width="14.04" height="40.60" fill="none" stroke="#5a5854" stroke-width="0.6"/>
<line x1="-18.24" y1="-19.52" x2="-6.20" y2="-19.52" stroke="#6e6c68" stroke-width="0.85"/>
<line x1="-18.24" y1="-19.02" x2="-6.20" y2="-19.02" stroke="#9c9a96" stroke-opacity="0.45" stroke-width="0.4"/>
<line x1="-18.24" y1="-17.96" x2="-6.20" y2="-17.96" stroke="#6e6c68" stroke-width="0.85"/>
<line x1="-18.24" y1="-17.46" x2="-6.20" y2="-17.46" stroke="#9c9a96" stroke-opacity="0.45" stroke-width="0.4"/>
<line x1="-18.24" y1="-16.40" x2="-6.20" y2="-16.40" stroke="#6e6c68" stroke-width="0.85"/>
<line x1="-18.24" y1="-15.90" x2="-6.20" y2="-15.90" stroke="#9c9a96" stroke-opacity="0.45" stroke-width="0.4"/>
<line x1="-18.24" y1="-14.83" x2="-6.20" y2="-14.83" stroke="#6e6c68" stroke-width="0.85"/>
<line x1="-18.24" y1="-14.33" x2="-6.20" y2="-14.33" stroke="#9c9a96" stroke-opacity="0.45" stroke-width="0.4"/>
<line x1="-18.24" y1="-13.27" x2="-6.20" y2="-13.27" stroke="#6e6c68" stroke-width="0.85"/>
<line x1="-18.24" y1="-12.77" x2="-6.20" y2="-12.77" stroke="#9c9a96" stroke-opacity="0.45" stroke-width="0.4"/>
<line x1="-18.24" y1="-11.71" x2="-6.20" y2="-11.71" stroke="#6e6c68" stroke-width="0.85"/>
<line x1="-18.24" y1="-11.21" x2="-6.20" y2="-11.21" stroke="#9c9a96" stroke-opacity="0.45" stroke-width="0.4"/>
<line x1="-18.24" y1="-10.15" x2="-6.20" y2="-10.15" stroke="#6e6c68" stroke-width="0.85"/>
<line x1="-18.24" y1="-9.65" x2="-6.20" y2="-9.65" stroke="#9c9a96" stroke-opacity="0.45" stroke-width="0.4"/>
<line x1="-18.24" y1="-8.59" x2="-6.20" y2="-8.59" stroke="#6e6c68" stroke-width="0.85"/>
<line x1="-18.24" y1="-8.09" x2="-6.20" y2="-8.09" stroke="#9c9a96" stroke-opacity="0.45" stroke-width="0.4"/>
<line x1="-18.24" y1="-7.03" x2="-6.20" y2="-7.03" stroke="#6e6c68" stroke-width="0.85"/>
<line x1="-18.24" y1="-6.53" x2="-6.20" y2="-6.53" stroke="#9c9a96" stroke-opacity="0.45" stroke-width="0.4"/>
<line x1="-18.24" y1="-5.47" x2="-6.20" y2="-5.47" stroke="#6e6c68" stroke-width="0.85"/>
<line x1="-18.24" y1="-4.97" x2="-6.20" y2="-4.97" stroke="#9c9a96" stroke-opacity="0.45" stroke-width="0.4"/>
<line x1="-18.24" y1="-3.90" x2="-6.20" y2="-3.90" stroke="#6e6c68" stroke-width="0.85"/>
<line x1="-18.24" y1="-3.40" x2="-6.20" y2="-3.40" stroke="#9c9a96" stroke-opacity="0.45" stroke-width="0.4"/>
<line x1="-18.24" y1="-2.34" x2="-6.20" y2="-2.34" stroke="#6e6c68" stroke-width="0.85"/>
<line x1="-18.24" y1="-1.84" x2="-6.20" y2="-1.84" stroke="#9c9a96" stroke-opacity="0.45" stroke-width="0.4"/>
<line x1="-18.24" y1="-0.78" x2="-6.20" y2="-0.78" stroke="#6e6c68" stroke-width="0.85"/>
<line x1="-18.24" y1="-0.28" x2="-6.20" y2="-0.28" stroke="#9c9a96" stroke-opacity="0.45" stroke-width="0.4"/>
<line x1="-18.24" y1="0.78" x2="-6.20" y2="0.78" stroke="#6e6c68" stroke-width="0.85"/>
<line x1="-18.24" y1="1.28" x2="-6.20" y2="1.28" stroke="#9c9a96" stroke-opacity="0.45" stroke-width="0.4"/>
<line x1="-18.24" y1="2.34" x2="-6.20" y2="2.34" stroke="#6e6c68" stroke-width="0.85"/>
<line x1="-18.24" y1="2.84" x2="-6.20" y2="2.84" stroke="#9c9a96" stroke-opacity="0.45" stroke-width="0.4"/>
<line x1="-18.24" y1="3.90" x2="-6.20" y2="3.90" stroke="#6e6c68" stroke-width="0.85"/>
<line x1="-18.24" y1="4.40" x2="-6.20" y2="4.40" stroke="#9c9a96" stroke-opacity="0.45" stroke-width="0.4"/>
<line x1="-18.24" y1="5.47" x2="-6.20" y2="5.47" stroke="#6e6c68" stroke-width="0.85"/>
<line x1="-18.24" y1="5.97" x2="-6.20" y2="5.97" stroke="#9c9a96" stroke-opacity="0.45" stroke-width="0.4"/>
<line x1="-18.24" y1="7.03" x2="-6.20" y2="7.03" stroke="#6e6c68" stroke-width="0.85"/>
<line x1="-18.24" y1="7.53" x2="-6.20" y2="7.53" stroke="#9c9a96" stroke-opacity="0.45" stroke-width="0.4"/>
<line x1="-18.24" y1="8.59" x2="-6.20" y2="8.59" stroke="#6e6c68" stroke-width="0.85"/>
<line x1="-18.24" y1="9.09" x2="-6.20" y2="9.09" stroke="#9c9a96" stroke-opacity="0.45" stroke-width="0.4"/>
<line x1="-18.24" y1="10.15" x2="-6.20" y2="10.15" stroke="#6e6c68" stroke-width="0.85"/>
<line x1="-18.24" y1="10.65" x2="-6.20" y2="10.65" stroke="#9c9a96" stroke-opacity="0.45" stroke-width="0.4"/>
<line x1="-18.24" y1="11.71" x2="-6.20" y2="11.71" stroke="#6e6c68" stroke-width="0.85"/>
<line x1="-18.24" y1="12.21" x2="-6.20" y2="12.21" stroke="#9c9a96" stroke-opacity="0.45" stroke-width="0.4"/>
<line x1="-18.24" y1="13.27" x2="-6.20" y2="13.27" stroke="#6e6c68" stroke-width="0.85"/>
<line x1="-18.24" y1="13.77" x2="-6.20" y2="13.77" stroke="#9c9a96" stroke-opacity="0.45" stroke-width="0.4"/>
<line x1="-18.24" y1="14.83" x2="-6.20" y2="14.83" stroke="#6e6c68" stroke-width="0.85"/>
<line x1="-18.24" y1="15.33" x2="-6.20" y2="15.33" stroke="#9c9a96" stroke-opacity="0.45" stroke-width="0.4"/>
<line x1="-18.24" y1="16.40" x2="-6.20" y2="16.40" stroke="#6e6c68" stroke-width="0.85"/>
<line x1="-18.24" y1="16.90" x2="-6.20" y2="16.90" stroke="#9c9a96" stroke-opacity="0.45" stroke-width="0.4"/>
<line x1="-18.24" y1="17.96" x2="-6.20" y2="17.96" stroke="#6e6c68" stroke-width="0.85"/>
<line x1="-18.24" y1="18.46" x2="-6.20" y2="18.46" stroke="#9c9a96" stroke-opacity="0.45" stroke-width="0.4"/>
<line x1="-18.24" y1="19.52" x2="-6.20" y2="19.52" stroke="#6e6c68" stroke-width="0.85"/>
<line x1="-18.24" y1="20.02" x2="-6.20" y2="20.02" stroke="#9c9a96" stroke-opacity="0.45" stroke-width="0.4"/>
<path d="M 2.08,23.20 L 8.32,23.20 L 5.20,26.32 Z" fill="none" stroke="#6e6c68" stroke-width="0.9"/>
<path d="M 2.08,23.90 L 8.32,23.90 L 5.20,27.02 Z" fill="none" stroke="#9c9a96" stroke-opacity="0.5" stroke-width="0.6"/>
<rect x="-6.00" y="-21.68" width="30.72" height="31.76" rx="1" fill="#000" fill-opacity="0.25"/>
<rect x="-5.20" y="-20.88" width="29.12" height="30.16" rx="0.8" fill="#0b0b11" stroke="#000" stroke-width="0.4"/>
<rect x="-4.20" y="-19.88" width="27.12" height="15.08" fill="#15418f"/>
<rect x="10.99" y="-18.67" width="4.07" height="3.92" rx="0.3" fill="#9bd4ec"/>
<rect x="15.87" y="-18.67" width="4.07" height="3.92" rx="0.3" fill="#9bd4ec"/>
<rect x="10.99" y="-13.85" width="4.07" height="3.92" rx="0.3" fill="#9bd4ec"/>
<rect x="15.87" y="-13.85" width="4.07" height="3.92" rx="0.3" fill="#9bd4ec"/>
<rect x="13.43" y="-9.93" width="4.07" height="3.92" rx="0.3" fill="#9bd4ec"/>
<rect x="0.68" y="-16.86" width="3.53" height="2.71" fill="#e6b58a"/>
<rect x="-0.32" y="-14.15" width="4.61" height="4.52" fill="#c8482e"/>
<rect x="0.68" y="-9.63" width="4.07" height="3.32" fill="#5a3a1e"/>
<circle cx="8.82" cy="-11.13" r="1.06" fill="#f0c030"/>
<rect x="-3.60" y="-3.20" width="17.47" height="2.56" rx="0.4" fill="#d83a2a"/>
<rect x="-3.60" y="-0.33" width="12.81" height="1.36" rx="0.3" fill="#e8902a"/>
<rect x="-3.60" y="1.47" width="10.48" height="2.56" rx="1.27" fill="#c0201c" stroke="#fff" stroke-width="0.3"/>
<rect x="-3.60" y="4.16" width="3.92" height="3.92" fill="none" stroke="#c8a23a" stroke-width="0.4"/>
<circle cx="-1.64" cy="6.12" r="1.10" fill="#e8c33a"/>
<circle cx="20.16" cy="5.52" r="2.56" fill="#d4af37" stroke="#9a7a1f" stroke-width="0.4"/>
<circle cx="20.16" cy="5.52" r="1.49" fill="#f0d77a"/>
</g>
<g transform="translate(94.78,417.22) rotate(45) scale(1.42)">
<path d="M -28,-8 L 2,-11 L 20,-11 L 24,-7 L 24,3 L 8,5 L -16,8 L -27,5 Z" transform="translate(3,4)" fill="#000" fill-opacity="0.32"/>
<path d="M -20,5 L -4,7 L -2,42 Q -2,47 -7,47 L -22,47 Q -27,47 -26,42 Z" transform="translate(3,4)" fill="#000" fill-opacity="0.32"/>
<path d="M 15,-11 L 62,-11 L 65,-9 L 65,-5 L 62,-3 L 15,-3 Z" transform="translate(3,4)" fill="#000" fill-opacity="0.32"/>
<path d="M -20,5 L -4,7 L -2,42 Q -2,47 -7,47 L -22,47 Q -27,47 -26,42 Z" fill="url(#zapDark)" stroke="#5e5f59" stroke-width="1.1"/>
<path d="M -23.00,11.00 L -3.00,12.10" stroke="#5e5f59" stroke-width="0.8"/>
<path d="M -22.65,14.10 L -2.65,15.20" stroke="#5e5f59" stroke-width="0.8"/>
<path d="M -22.30,17.20 L -2.30,18.30" stroke="#5e5f59" stroke-width="0.8"/>
<path d="M -21.95,20.30 L -1.95,21.40" stroke="#5e5f59" stroke-width="0.8"/>
<path d="M -21.60,23.40 L -1.60,24.50" stroke="#5e5f59" stroke-width="0.8"/>
<path d="M -21.25,26.50 L -1.25,27.60" stroke="#5e5f59" stroke-width="0.8"/>
<path d="M -20.90,29.60 L -0.90,30.70" stroke="#5e5f59" stroke-width="0.8"/>
<path d="M -20.55,32.70 L -0.55,33.80" stroke="#5e5f59" stroke-width="0.8"/>
<path d="M -20.20,35.80 L -0.20,36.90" stroke="#5e5f59" stroke-width="0.8"/>
<path d="M -19.85,38.90 L 0.15,40.00" stroke="#5e5f59" stroke-width="0.8"/>
<path d="M -19.50,42.00 L 0.50,43.10" stroke="#5e5f59" stroke-width="0.8"/>
<path d="M 15,-11 L 62,-11 L 65,-9 L 65,-5 L 62,-3 L 15,-3 Z" fill="url(#zapBarrel)" stroke="#5e5f59" stroke-width="1"/>
<rect x="15" y="-11" width="47" height="1.5" fill="#95968f" opacity="0.5"/>
<rect x="52" y="-13" width="3" height="2.2" rx="0.4" fill="#7c7d77" stroke="#5e5f59" stroke-width="0.4"/>
<rect x="62.5" y="-9.5" width="2" height="5" rx="0.8" fill="#1c1c1c"/>
<path d="M -28,-8 L 2,-11 L 20,-11 L 24,-7 L 24,3 L 8,5 L -16,8 L -27,5 Z" fill="url(#zapLight)" stroke="#5f5e59" stroke-width="1.2"/>
<path d="M -28,-8 L 2,-11 L 20,-11 L 21,-9 L -26,-6 Z" fill="#ece9e2" opacity="0.6"/>
<path d="M 8,5 L 24,3 L 24,4 L 8,6 Z" fill="#c3c1b9" opacity="0.6"/>
<path d="M 2,-11 L 18,-11 L 16,-17 L 4,-17 Z" fill="#c3c1b9" stroke="#5e5f59" stroke-width="0.5"/>
<path d="M 4.00,-11.5 L 6.00,-16.5" stroke="#5e5f59" stroke-width="0.7"/>
<path d="M 6.60,-11.5 L 8.60,-16.5" stroke="#5e5f59" stroke-width="0.7"/>
<path d="M 9.20,-11.5 L 11.20,-16.5" stroke="#5e5f59" stroke-width="0.7"/>
<path d="M 11.80,-11.5 L 13.80,-16.5" stroke="#5e5f59" stroke-width="0.7"/>
<path d="M 14.40,-11.5 L 16.40,-16.5" stroke="#5e5f59" stroke-width="0.7"/>
<circle cx="-12" cy="-2" r="1.0" fill="#5e5f59"/>
<circle cx="14" cy="-6" r="0.9" fill="#5e5f59"/>
<rect x="-25.00" y="-7.40" width="13.00" height="3.60" rx="1.80" fill="none" stroke="#c63a2c" stroke-width="0.65"/>
<path d="M -2,5 Q 4,9 3,16 Q -2,17 -5,12 L -5,5 Z" fill="#c63a2c" stroke="#e0584a" stroke-width="0.5"/>
<path d="M -14,46 Q -20,52 -28,50" fill="none" stroke="#1c1c1c" stroke-width="2.4"/>
</g>
<g transform="translate(422.17,422.17) rotate(45) scale(1.5)">
<path d="M -22,6 H 22 V 34 H -22 Z" transform="translate(3,4)" fill="#000" fill-opacity="0.32"/>
<path d="M -22,30 L -20,18 L -15,15 L 15,15 L 20,18 L 22,30 L 18,34 L -18,34 Z" fill="url(#robBase)" stroke="#5f5e59" stroke-width="1.1"/>
<path d="M -22,30 L -20,18 L -15,15 L 0,15 L 0,34 L -18,34 Z" fill="#6a6a66" opacity="0.18"/>
<rect x="-15" y="24" width="30" height="5" rx="0.6" fill="#37151a"/>
<rect x="-15" y="24.7" width="13" height="2" fill="#a52219"/>
<path d="M -8,30 l2,2.4 l2,-2.4 Z" fill="#46464a"/><path d="M 4,30 l2,2.4 l2,-2.4 Z" fill="#46464a"/>
<rect x="-17" y="33.5" width="6" height="3" fill="#161618"/>
<rect x="11" y="33.5" width="6" height="3" fill="#161618"/>
<path d="M -17,15 L -13,11 L 13,11 L 17,15 L 13,18 L -13,18 Z" fill="url(#robBase)" stroke="#5f5e59" stroke-width="0.9"/>
<ellipse cx="0" cy="12.5" rx="11.5" ry="2.4" fill="#6a6a66" opacity="0.30"/>
<rect x="-4" y="8.0" width="8" height="3.0" rx="1" fill="url(#robBody)" stroke="#5f5e59" stroke-width="0.4"/>
<rect x="-4" y="10.0" width="8" height="1.0" fill="#46464a"/>
<rect x="-4" y="5.0" width="8" height="3.0" rx="1" fill="url(#robBody)" stroke="#5f5e59" stroke-width="0.4"/>
<rect x="-4" y="7.0" width="8" height="1.0" fill="#46464a"/>
<rect x="-4" y="2.0" width="8" height="3.0" rx="1" fill="url(#robBody)" stroke="#5f5e59" stroke-width="0.4"/>
<rect x="-4" y="4.0" width="8" height="1.0" fill="#46464a"/>
<rect x="-4" y="-1.0" width="8" height="3.0" rx="1" fill="url(#robBody)" stroke="#5f5e59" stroke-width="0.4"/>
<rect x="-4" y="1.0" width="8" height="1.0" fill="#46464a"/>
<path d="M -17,-7 Q -18,-12 -13,-14 L 13,-14 Q 18,-12 17,-7 Q 17,-2 12,-1 L -12,-1 Q -17,-2 -17,-7 Z" fill="url(#robBody)" stroke="#5f5e59" stroke-width="1.2"/>
<path d="M -13,-14 Q -18,-12 -17,-7 Q -17,-3 -13,-1.5 L -10,-1.5 Q -14,-4 -13,-10 Q -12,-13 -10,-14 Z" fill="#e6e5df" opacity="0.45"/>
<ellipse cx="0" cy="-7.5" rx="13" ry="3" fill="#6a6a66" opacity="0.12"/>
<circle cx="-13.5" cy="-8" r="2.4" fill="#46464a"/><circle cx="13.5" cy="-8" r="2.4" fill="#46464a"/>
<rect x="-4.2" y="-16.0" width="8.4" height="2.8" rx="1.1" fill="url(#robBody)" stroke="#5f5e59" stroke-width="0.5"/>
<rect x="-4.2" y="-14.2" width="8.4" height="1.0" fill="#46464a"/>
<rect x="-4.2" y="-18.8" width="8.4" height="2.8" rx="1.1" fill="url(#robBody)" stroke="#5f5e59" stroke-width="0.5"/>
<rect x="-4.2" y="-17.0" width="8.4" height="1.0" fill="#46464a"/>
<rect x="-4.2" y="-21.6" width="8.4" height="2.8" rx="1.1" fill="url(#robBody)" stroke="#5f5e59" stroke-width="0.5"/>
<rect x="-4.2" y="-19.8" width="8.4" height="1.0" fill="#46464a"/>
<rect x="-4.2" y="-24.4" width="8.4" height="2.8" rx="1.1" fill="url(#robBody)" stroke="#5f5e59" stroke-width="0.5"/>
<rect x="-4.2" y="-22.6" width="8.4" height="1.0" fill="#46464a"/>
<rect x="-4.2" y="-27.2" width="8.4" height="2.8" rx="1.1" fill="url(#robBody)" stroke="#5f5e59" stroke-width="0.5"/>
<rect x="-4.2" y="-25.4" width="8.4" height="1.0" fill="#46464a"/>
<path d="M -14,-31 L -14,-42 Q -14,-44 -12,-44 L 12,-44 Q 14,-44 14,-42 L 14,-31 Q 14,-30 13,-30 L -13,-30 Q -14,-30 -14,-31 Z" fill="url(#robBody)" stroke="#5f5e59" stroke-width="1.2"/>
<rect x="-13" y="-43" width="26" height="2.2" rx="1" fill="#e6e5df" opacity="0.5"/>
<circle cx="1" cy="-42" r="1.2" fill="#c0392b"/>
<rect x="-13" y="-39.0" width="2.6" height="1.1" rx="0.3" fill="#46464a" opacity="0.6"/>
<rect x="-13" y="-36.6" width="2.6" height="1.1" rx="0.3" fill="#46464a" opacity="0.6"/>
<rect x="-13" y="-34.2" width="2.6" height="1.1" rx="0.3" fill="#46464a" opacity="0.6"/>
<rect x="10.4" y="-39.0" width="2.6" height="1.1" rx="0.3" fill="#46464a" opacity="0.6"/>
<rect x="10.4" y="-36.6" width="2.6" height="1.1" rx="0.3" fill="#46464a" opacity="0.6"/>
<rect x="10.4" y="-34.2" width="2.6" height="1.1" rx="0.3" fill="#46464a" opacity="0.6"/>
<path d="M -10,-40.5 L 10,-40.5 L 9,-31 L -9,-31 Z" fill="#131315"/>
<path d="M -10,-40.5 L 10,-40.5 L 9.7,-38.5 L -9.7,-38.5 Z" fill="#000" opacity="0.5"/>
<circle cx="-4.8" cy="-35.5" r="3.5" fill="url(#robLens)" stroke="#000" stroke-width="0.5"/>
<circle cx="-4.8" cy="-35.5" r="1.9" fill="#0a0a0d"/>
<circle cx="-6.0" cy="-36.7" r="0.95" fill="#5a5a62" opacity="0.85"/>
<circle cx="4.8" cy="-35.5" r="3.5" fill="url(#robLens)" stroke="#000" stroke-width="0.5"/>
<circle cx="4.8" cy="-35.5" r="1.9" fill="#0a0a0d"/>
<circle cx="3.5999999999999996" cy="-36.7" r="0.95" fill="#5a5a62" opacity="0.85"/>
<path d="M -13.5,-8 L -11,-17 L -4.5,-23" fill="none" stroke="#54544f" stroke-width="5.0" stroke-linejoin="round" stroke-linecap="round"/>
<path d="M -13.5,-8 L -11,-17 L -4.5,-23" fill="none" stroke="url(#robArm)" stroke-width="3.6" stroke-linejoin="round" stroke-linecap="round"/>
<circle cx="-11" cy="-17" r="1.7" fill="#46464a"/>
<path d="M 13.5,-8 L 11,-17 L 4.5,-23" fill="none" stroke="#54544f" stroke-width="5.0" stroke-linejoin="round" stroke-linecap="round"/>
<path d="M 13.5,-8 L 11,-17 L 4.5,-23" fill="none" stroke="url(#robArm)" stroke-width="3.6" stroke-linejoin="round" stroke-linecap="round"/>
<circle cx="11" cy="-17" r="1.7" fill="#46464a"/>
<rect x="-1.0" y="-28" width="2.0" height="11" rx="0.6" fill="#a6a6a2"/>
<ellipse cx="0" cy="-19" rx="7.5" ry="2.8" fill="#cc2a22" stroke="#6e0d09" stroke-width="0.5"/>
<ellipse cx="0" cy="-20" rx="7.5" ry="1.7" fill="#ef6256" opacity="0.55"/>
<rect x="1.0" y="-25.5" width="3.3" height="3.6" rx="0.5" fill="#161618"/>
<rect x="-4.3" y="-25.5" width="3.3" height="3.6" rx="0.5" fill="#161618"/>
<ellipse cx="0" cy="-28" rx="2.4" ry="1.0" fill="#a6a6a2"/>
<path d="M 18,21 q 6,-2 6,3 q 0,5 -5,3 q -5,-2 -1,4" fill="none" stroke="#161618" stroke-width="1.4"/>
</g>

  <!-- Cog body + shading -->
  <path d="M 445.560,243.077 L 445.560,268.923 L 429.597,267.835 L 426.745,289.499 L 442.446,292.579 L 435.756,317.544 L 420.619,312.362 L 412.257,332.549 L 426.625,339.588 L 413.702,361.972 L 400.422,353.048 L 387.120,370.383 L 399.177,380.901 L 380.901,399.177 L 370.383,387.120 L 353.048,400.422 L 361.972,413.702 L 339.588,426.625 L 332.549,412.257 L 312.362,420.619 L 317.544,435.756 L 292.579,442.446 L 289.499,426.745 L 267.835,429.597 L 268.923,445.560 L 243.077,445.560 L 244.165,429.597 L 222.501,426.745 L 219.421,442.446 L 194.456,435.756 L 199.638,420.619 L 179.451,412.257 L 172.412,426.625 L 150.028,413.702 L 158.952,400.422 L 141.617,387.120 L 131.099,399.177 L 112.823,380.901 L 124.880,370.383 L 111.578,353.048 L 98.298,361.972 L 85.375,339.588 L 99.743,332.549 L 91.381,312.362 L 76.244,317.544 L 69.554,292.579 L 85.255,289.499 L 82.403,267.835 L 66.440,268.923 L 66.440,243.077 L 82.403,244.165 L 85.255,222.501 L 69.554,219.421 L 76.244,194.456 L 91.381,199.638 L 99.743,179.451 L 85.375,172.412 L 98.298,150.028 L 111.578,158.952 L 124.880,141.617 L 112.823,131.099 L 131.099,112.823 L 141.617,124.880 L 158.952,111.578 L 150.028,98.298 L 172.412,85.375 L 179.451,99.743 L 199.638,91.381 L 194.456,76.244 L 219.421,69.554 L 222.501,85.255 L 244.165,82.403 L 243.077,66.440 L 268.923,66.440 L 267.835,82.403 L 289.499,85.255 L 292.579,69.554 L 317.544,76.244 L 312.362,91.381 L 332.549,99.743 L 339.588,85.375 L 361.972,98.298 L 353.048,111.578 L 370.383,124.880 L 380.901,112.823 L 399.177,131.099 L 387.120,141.617 L 400.422,158.952 L 413.702,150.028 L 426.625,172.412 L 412.257,179.451 L 420.619,199.638 L 435.756,194.456 L 442.446,219.421 L 426.745,222.501 L 429.597,244.165 Z" fill="url(#rust)" stroke="#3c1808" stroke-opacity="0.85" stroke-width="3" stroke-linejoin="round"/>
  <g clip-path="url(#gearClip)">
    <rect x="0" y="0" width="512" height="512" fill="url(#patina)"/>
    <rect x="0" y="0" width="512" height="512" fill="url(#sheen)"/>
  </g>

  <!-- Machined groove ring -->
  <circle cx="256.0" cy="256.0" r="156.0" fill="none" stroke="#4a1f0c" stroke-width="9"/>
  <circle cx="256.0" cy="256.0" r="150.5" fill="none" stroke="#f0b070" stroke-opacity="0.30" stroke-width="2"/>

  <!-- Recessed hub -->
  <circle cx="256.0" cy="256.0" r="132.0" fill="url(#hub)" stroke="#000" stroke-opacity="0.6" stroke-width="3"/>
  <circle cx="256.0" cy="256.0" r="130.0" fill="none" stroke="#fff" stroke-opacity="0.06" stroke-width="2"/>

  <!-- Wordmark: "Rusty" (top) / "NES" (bottom), Nintendo red, drop-shadowed -->
  <path d="M188.5 196.625V173.0H208.75V176.375H212.125V186.5H205.375V189.875H208.75V193.25H212.125V196.625H202.0V193.25H198.625V189.875H195.25V196.625ZM195.25 186.5H202.0V183.125H205.375V176.375H195.25ZM218.875 196.625V193.25H215.5V179.75H222.25V193.25H232.375V179.75H239.125V196.625ZM242.5 196.625V193.25H259.375V189.875H245.875V186.5H242.5V183.125H245.875V179.75H262.75V183.125H249.25V186.5H262.75V189.875H266.125V193.25H262.75V196.625ZM279.625 196.625V183.125H272.875V179.75H279.625V173.0H286.375V179.75H293.125V183.125H286.375V196.625ZM299.875 200.0V196.625H313.375V193.25H299.875V189.875H296.5V179.75H303.25V189.875H313.375V179.75H320.125V196.625H316.75V200.0Z" fill="#7a0008"/>
  <path d="M188.5 194.125V170.5H208.75V173.875H212.125V184.0H205.375V187.375H208.75V190.75H212.125V194.125H202.0V190.75H198.625V187.375H195.25V194.125ZM195.25 184.0H202.0V180.625H205.375V173.875H195.25ZM218.875 194.125V190.75H215.5V177.25H222.25V190.75H232.375V177.25H239.125V194.125ZM242.5 194.125V190.75H259.375V187.375H245.875V184.0H242.5V180.625H245.875V177.25H262.75V180.625H249.25V184.0H262.75V187.375H266.125V190.75H262.75V194.125ZM279.625 194.125V180.625H272.875V177.25H279.625V170.5H286.375V177.25H293.125V180.625H286.375V194.125ZM299.875 197.5V194.125H313.375V190.75H299.875V187.375H296.5V177.25H303.25V187.375H313.375V177.25H320.125V194.125H316.75V197.5Z" fill="#e60012"/>
  <path d="M203.5 354.125V323.5H212.25V327.875H216.625V332.25H221.0V336.625H225.375V323.5H234.125V354.125H225.375V345.375H221.0V341.0H216.625V336.625H212.25V354.125ZM238.5 354.125V323.5H269.125V327.875H247.25V336.625H264.75V341.0H247.25V349.75H269.125V354.125ZM277.875 354.125V349.75H273.5V345.375H282.25V349.75H295.375V341.0H277.875V336.625H273.5V327.875H277.875V323.5H299.75V327.875H304.125V332.25H295.375V327.875H282.25V336.625H299.75V341.0H304.125V349.75H299.75V354.125Z" fill="#7a0008"/>
  <path d="M203.5 351.125V320.5H212.25V324.875H216.625V329.25H221.0V333.625H225.375V320.5H234.125V351.125H225.375V342.375H221.0V338.0H216.625V333.625H212.25V351.125ZM238.5 351.125V320.5H269.125V324.875H247.25V333.625H264.75V338.0H247.25V346.75H269.125V351.125ZM277.875 351.125V346.75H273.5V342.375H282.25V346.75H295.375V338.0H277.875V333.625H273.5V324.875H277.875V320.5H299.75V324.875H304.125V329.25H295.375V324.875H282.25V333.625H299.75V338.0H304.125V346.75H299.75V351.125Z" fill="#e60012"/>

  <!-- NES controller -->
  <rect x="137.0" y="215.0" width="238.0" height="100.0" rx="16.160000000000004" fill="#000" fill-opacity="0.22"/>
  <rect x="139.0" y="212.0" width="234.0" height="97.0" rx="14.160000000000002" fill="#000" fill-opacity="0.30"/>
  <rect x="140.0" y="209.0" width="232.0" height="94.0" rx="13.160000000000002" fill="url(#cbody)" stroke="#6f6e69" stroke-width="1.5"/>
  <rect x="141.5" y="210.5" width="229.0" height="91.0" rx="11.660000000000002" fill="none" stroke="#ffffff" stroke-opacity="0.4" stroke-width="1.5"/>
  <rect x="150.44" y="219.34" width="211.12" height="73.32000000000001" rx="6.580000000000001" fill="#37373a" stroke="#1d1d1f" stroke-width="1.2"/>
  <rect x="151.44" y="220.34" width="209.12" height="71.32000000000001" rx="5.64" fill="none" stroke="#525256" stroke-opacity="0.55" stroke-width="0.8"/>
  <rect x="159.36" y="234.38" width="56.4" height="56.4" rx="9.4" fill="#27272a"/>
  <path d="M 180.29,243.67 Q 180.29,240.85 183.11,240.85 L 194.01,240.85 Q 196.83,240.85 196.83,243.67 L 196.83,252.79 Q 196.83,255.61 199.65,255.61 L 208.77,255.61 Q 211.59,255.61 211.59,258.43 L 211.59,269.33 Q 211.59,272.15 208.77,272.15 L 199.65,272.15 Q 196.83,272.15 196.83,274.97 L 196.83,284.09 Q 196.83,286.91 194.01,286.91 L 183.11,286.91 Q 180.29,286.91 180.29,284.09 L 180.29,274.97 Q 180.29,272.15 177.47,272.15 L 168.35,272.15 Q 165.53,272.15 165.53,269.33 L 165.53,258.43 Q 165.53,255.61 168.35,255.61 L 177.47,255.61 Q 180.29,255.61 180.29,252.79 Z" fill="#000" fill-opacity="0.4"/>
  <path d="M 179.29,242.37 Q 179.29,239.55 182.11,239.55 L 193.01,239.55 Q 195.83,239.55 195.83,242.37 L 195.83,251.49 Q 195.83,254.31 198.65,254.31 L 207.77,254.31 Q 210.59,254.31 210.59,257.13 L 210.59,268.03 Q 210.59,270.85 207.77,270.85 L 198.65,270.85 Q 195.83,270.85 195.83,273.67 L 195.83,282.79 Q 195.83,285.61 193.01,285.61 L 182.11,285.61 Q 179.29,285.61 179.29,282.79 L 179.29,273.67 Q 179.29,270.85 176.47,270.85 L 167.35,270.85 Q 164.53,270.85 164.53,268.03 L 164.53,257.13 Q 164.53,254.31 167.35,254.31 L 176.47,254.31 Q 179.29,254.31 179.29,251.49 Z" fill="url(#dpadg)" stroke="#000" stroke-opacity="0.5" stroke-width="1" stroke-linejoin="round"/>
  <circle cx="187.56" cy="262.58" r="9.87" fill="#26282d"/>
  <circle cx="186.16" cy="261.18" r="4.2299999999999995" fill="#4a4d53"/>
  <rect x="224.68" y="234.38" width="62.64" height="4.7" rx="2.35" fill="#9a9a98"/>
  <rect x="224.68" y="243.78" width="62.64" height="4.7" rx="2.35" fill="#9a9a98"/>
  <rect x="223.52" y="258.82000000000005" width="58.0" height="18.8" rx="9.4" fill="#c6c4bf" stroke="#7d7c77" stroke-width="0.8"/>
  <rect x="227.0" y="265.11800000000005" width="21.344" height="6.204000000000001" rx="3.1020000000000003" fill="#2e3138"/>
  <rect x="227.0" y="265.11800000000005" width="21.344" height="3.1020000000000003" rx="3.1020000000000003" fill="#474b53"/>
  <rect x="256.69599999999997" y="265.11800000000005" width="21.344" height="6.204000000000001" rx="3.1020000000000003" fill="#2e3138"/>
  <rect x="256.69599999999997" y="265.11800000000005" width="21.344" height="3.1020000000000003" rx="3.1020000000000003" fill="#474b53"/>
  <text x="237.672" y="256.82000000000005" font-family="Arial,Helvetica,sans-serif" font-size="6" font-weight="700" fill="#e60012" text-anchor="middle">SELECT</text>
  <text x="267.368" y="256.82000000000005" font-family="Arial,Helvetica,sans-serif" font-size="6" font-weight="700" fill="#e60012" text-anchor="middle">START</text>
  <rect x="301.24" y="232.97" width="51.04" height="10.81" rx="5.41" fill="none" stroke="#e60012" stroke-width="1.95"/>
  <rect x="292.53999999999996" y="251.29999999999998" width="68.44" height="28.2" rx="7.896000000000001" fill="#c6c4bf" stroke="#7d7c77" stroke-width="0.8"/>
  <circle cx="310.984" cy="266.4" r="13.091999999999999" fill="#000" fill-opacity="0.4"/>
  <circle cx="310.984" cy="265.4" r="13.091999999999999" fill="#26282c"/>
  <circle cx="310.984" cy="265.4" r="11.091999999999999" fill="#9a1c1c"/>
  <circle cx="310.984" cy="265.4" r="9.095439999999998" fill="url(#btnDish)"/>
  <circle cx="310.984" cy="265.4" r="9.095439999999998" fill="url(#dishShade)"/>
  <ellipse cx="310.984" cy="270.05863999999997" rx="4.658639999999999" ry="1.88564" fill="#ff9a90" fill-opacity="0.55"/>
  <circle cx="342.536" cy="266.4" r="13.091999999999999" fill="#000" fill-opacity="0.4"/>
  <circle cx="342.536" cy="265.4" r="13.091999999999999" fill="#26282c"/>
  <circle cx="342.536" cy="265.4" r="11.091999999999999" fill="#9a1c1c"/>
  <circle cx="342.536" cy="265.4" r="9.095439999999998" fill="url(#btnDish)"/>
  <circle cx="342.536" cy="265.4" r="9.095439999999998" fill="url(#dishShade)"/>
  <ellipse cx="342.536" cy="270.05863999999997" rx="4.658639999999999" ry="1.88564" fill="#ff9a90" fill-opacity="0.55"/>
  <text x="310.984" y="287.5" font-family="Arial,Helvetica,sans-serif" font-size="10" font-weight="700" fill="#e60012" text-anchor="middle">B</text>
  <text x="342.536" y="287.5" font-family="Arial,Helvetica,sans-serif" font-size="10" font-weight="700" fill="#e60012" text-anchor="middle">A</text>
</svg>
